<svg width="15" height="17" viewBox="0 0 15 17" fill="none" xmlns="http://www.w3.org/2000/svg">
<path d="M13.3297 16.3353C11.665 16.3353 10.0359 15.9449 8.44255 15.1642C6.84917 14.3835 5.40443 13.2595 4.10833 11.7923C2.81222 10.3386 1.81933 8.70647 1.12966 6.89603C0.439989 5.08558 0.0951538 3.23811 0.0951538 1.35363C0.0951538 1.08442 0.160554 0.875781 0.291353 0.727715C0.422153 0.579648 0.606462 0.505615 0.844279 0.505615H4.41154C4.57801 0.505615 4.72962 0.569553 4.86637 0.697428C5.00311 0.825304 5.08932 0.976736 5.125 1.15172L5.66009 4.58417C5.68387 4.77262 5.67792 4.94088 5.64225 5.08894C5.60658 5.23701 5.55307 5.35142 5.48172 5.43219L3.59107 7.6128C3.817 8.07046 4.08454 8.51803 4.39371 8.95549C4.70287 9.39296 5.05365 9.8338 5.44605 10.278C5.80278 10.6684 6.16545 11.0318 6.53406 11.3683C6.90268 11.7048 7.27724 12.0009 7.65775 12.2567L9.61975 10.1165C9.71487 10.0088 9.82189 9.93475 9.9408 9.89437C10.0597 9.85399 10.1786 9.84726 10.2975 9.87418L13.4724 10.6414C13.6389 10.6953 13.7816 10.7929 13.9005 10.9342C14.0194 11.0755 14.0788 11.2337 14.0788 11.4087V15.4872C14.0788 15.7565 14.0134 15.9651 13.8826 16.1132C13.7518 16.2612 13.5675 16.3353 13.3297 16.3353Z" fill="white"/>
</svg>
