<svg width="10" height="24" viewBox="0 0 10 24" fill="none" xmlns="http://www.w3.org/2000/svg">
<path d="M4.30853 0.564391C3.8949 0.827169 3.5494 1.07535 3.53966 1.10941C3.5348 1.14348 3.65159 1.50845 3.79757 1.92208C3.94356 2.33571 4.06035 2.67635 4.05549 2.68608C4.04575 2.69095 3.85597 2.77854 3.62726 2.87586C3.16496 3.07538 3.0433 3.18244 3.0433 3.39655C3.0433 3.57174 3.23795 3.77612 3.39854 3.77612C3.55426 3.77612 7.07257 2.23352 7.21856 2.107C7.37914 1.96101 7.36941 1.6739 7.19909 1.54251C7.02391 1.40625 6.95578 1.41112 6.51295 1.61064C6.2307 1.73716 6.12365 1.76149 6.09445 1.71769C6.07498 1.68363 5.856 1.30893 5.60296 0.885565C5.35478 0.457334 5.13093 0.102097 5.1066 0.0972304C5.08227 0.0874979 4.72216 0.301613 4.30853 0.564391Z" fill="white"/>
<path d="M5.69541 3.63013C5.10659 3.89777 4.60536 4.12162 4.57617 4.13135C4.54697 4.14108 4.59077 4.39413 4.68809 4.7591C4.77082 5.09487 4.84381 5.40631 4.84381 5.44524C4.84381 5.50364 4.72216 5.56203 4.43018 5.65449C3.97762 5.79561 3.87056 5.88807 3.87056 6.14112C3.87056 6.3163 4.05548 6.50122 4.2258 6.50122C4.27933 6.50122 5.02873 6.28224 5.88519 6.00973C8.75628 5.10947 8.68816 5.13867 8.68816 4.84669C8.68816 4.66664 8.49837 4.45739 8.33779 4.45739C8.27453 4.45739 8.08474 4.50119 7.90956 4.55472C7.73437 4.60825 7.57865 4.65204 7.56405 4.65204C7.54945 4.65204 7.44239 4.43793 7.3256 4.17515C7.04336 3.5328 6.84384 3.1435 6.80005 3.14837C6.78058 3.15323 6.28422 3.36735 5.69541 3.63013Z" fill="white"/>
<path d="M6.53705 6.55961C5.24749 6.96837 5.14043 7.01217 5.1599 7.10463C5.19396 7.24575 5.27182 7.98055 5.25722 8.00002C5.24749 8.00975 5.0723 8.02922 4.86305 8.04382C4.55648 8.06815 4.46402 8.09735 4.37156 8.18494C4.22071 8.33579 4.22557 8.56451 4.3813 8.71536C4.51755 8.85648 4.53215 8.85648 5.4908 8.78835C5.87037 8.76402 6.87282 8.6959 7.71468 8.64237C8.79499 8.56937 9.27675 8.52071 9.34975 8.47205C9.5736 8.32606 9.53467 7.93189 9.28162 7.81997C9.19889 7.78104 9.03831 7.77131 8.79986 7.79077C8.52248 7.81997 8.43976 7.81024 8.43002 7.76157C8.42029 7.72264 8.3619 7.45013 8.30837 7.15816C8.17698 6.47201 8.06505 6.11191 7.99206 6.11191C7.958 6.11678 7.30592 6.31629 6.53705 6.55961Z" fill="white"/>
<path d="M6.66851 9.43073C5.86071 9.48426 5.29623 9.54266 5.27676 9.57186C5.26216 9.60105 5.23297 9.77137 5.2135 9.94656C5.1843 10.2921 5.02372 11.0074 4.97019 11.0609C4.95072 11.0804 4.81447 11.0658 4.65875 11.0317C4.50789 10.9977 4.27918 10.9587 4.15752 10.9441C3.95801 10.9198 3.92394 10.9344 3.83148 11.0512C3.77309 11.1242 3.72443 11.2458 3.72443 11.314C3.72443 11.4551 3.86068 11.6352 4.0018 11.6789C4.41057 11.8006 8.22085 12.6814 8.33764 12.6814C8.51769 12.6814 8.68801 12.4916 8.68801 12.297C8.68801 12.0488 8.46416 11.9077 7.94834 11.8249C7.84615 11.8055 7.76342 11.786 7.76342 11.7811C7.76342 11.7714 7.82668 11.6206 7.90941 11.4454C8.17705 10.8468 8.4447 9.8541 8.4447 9.4648C8.4447 9.29448 8.58582 9.29935 6.66851 9.43073Z" fill="white"/>
<path d="M4.29376 12.6423C4.25483 12.7056 4.04558 13.0316 3.8266 13.3674L3.42756 13.9854L3.0042 13.7956C2.51757 13.5767 2.42511 13.5669 2.24506 13.708C2.08934 13.8297 2.06501 14.1265 2.20613 14.2531C2.35699 14.3893 6.26459 16.0876 6.43005 16.0876C6.71229 16.0876 6.89721 15.7129 6.73175 15.4891C6.69769 15.4453 6.51764 15.3382 6.32785 15.2555C6.14294 15.1728 5.98235 15.0998 5.97262 15.0901C5.94829 15.0706 6.27919 14.4283 6.65389 13.7616C6.84368 13.4307 6.9848 13.1533 6.97507 13.1484C6.9556 13.1338 4.43974 12.5353 4.39595 12.5353C4.37648 12.5353 4.32782 12.5839 4.29376 12.6423Z" fill="white"/>
<path d="M2.48839 15.5426C2.14775 16.2142 1.94337 16.9052 1.8947 17.5621L1.86064 17.9855H1.45187C1.06257 17.9855 1.03337 17.9952 0.897119 18.1266C0.7268 18.3018 0.712201 18.4818 0.867922 18.6376C0.974979 18.7446 1.00904 18.7495 2.26454 18.7787C2.97501 18.7981 4.06506 18.8127 4.68794 18.8127H5.82664L5.96776 18.6716C6.11862 18.5159 6.13808 18.4283 6.05049 18.2629C5.95316 18.0731 5.85584 18.039 5.45681 18.0341H5.07724L5.10643 17.8006C5.1259 17.674 5.19889 17.3334 5.26702 17.0463C5.33515 16.7543 5.37895 16.511 5.36435 16.4964C5.32542 16.4575 2.7025 15.309 2.65384 15.309C2.62464 15.309 2.55651 15.4112 2.48839 15.5426Z" fill="white"/>
<path d="M2.16751 19.5671C2.16751 19.6303 2.55681 20.4868 2.7174 20.7642C2.91692 21.1292 3.32568 21.7082 3.70038 22.1705C4.17728 22.7545 5.39384 23.9273 5.4571 23.864C5.46684 23.8494 5.42304 23.5672 5.35491 23.2314C5.1262 22.1024 4.94128 20.5063 4.94128 19.6498V19.5428H3.5544C2.79039 19.5428 2.16751 19.5525 2.16751 19.5671Z" fill="white"/>
</svg>
