<svg width="30" height="15" viewBox="0 0 30 15" fill="none" xmlns="http://www.w3.org/2000/svg">
<path d="M0.593231 14.5254V12.6567C0.593231 11.8064 1.02826 11.1144 1.89832 10.5805C2.76837 10.0466 3.91527 9.77961 5.33899 9.77961C5.59606 9.77961 5.84323 9.78455 6.08052 9.79444C6.31781 9.80433 6.54521 9.82905 6.76272 9.86859C6.48589 10.2838 6.27826 10.7189 6.13984 11.1737C6.00142 11.6285 5.93221 12.1031 5.93221 12.5974V14.5254H0.593231ZM7.71188 14.5254V12.5974C7.71188 11.9646 7.8849 11.3863 8.23094 10.8622C8.57699 10.3382 9.0664 9.87848 9.69916 9.483C10.3319 9.08752 11.0883 8.79091 11.9682 8.59317C12.8482 8.39543 13.8023 8.29656 14.8305 8.29656C15.8785 8.29656 16.8425 8.39543 17.7225 8.59317C18.6024 8.79091 19.3588 9.08752 19.9915 9.483C20.6243 9.87848 21.1088 10.3382 21.4449 10.8622C21.7811 11.3863 21.9492 11.9646 21.9492 12.5974V14.5254H7.71188ZM23.7288 14.5254V12.5974C23.7288 12.0833 23.6646 11.5988 23.536 11.144C23.4075 10.6892 23.2147 10.2641 22.9576 9.86859C23.1752 9.82905 23.3976 9.80433 23.625 9.79444C23.8524 9.78455 24.0848 9.77961 24.322 9.77961C25.7458 9.77961 26.8927 10.0416 27.7627 10.5656C28.6328 11.0896 29.0678 11.7867 29.0678 12.6567V14.5254H23.7288ZM10.2331 12.1525H19.4576C19.2599 11.757 18.7112 11.411 17.8115 11.1144C16.9117 10.8177 15.9181 10.6694 14.8305 10.6694C13.7429 10.6694 12.7493 10.8177 11.8496 11.1144C10.9499 11.411 10.411 11.757 10.2331 12.1525ZM5.33899 8.59317C4.68645 8.59317 4.12784 8.36083 3.66315 7.89614C3.19846 7.43145 2.96611 6.87283 2.96611 6.22029C2.96611 5.54797 3.19846 4.98441 3.66315 4.52961C4.12784 4.07481 4.68645 3.84741 5.33899 3.84741C6.01131 3.84741 6.57487 4.07481 7.02967 4.52961C7.48447 4.98441 7.71188 5.54797 7.71188 6.22029C7.71188 6.87283 7.48447 7.43145 7.02967 7.89614C6.57487 8.36083 6.01131 8.59317 5.33899 8.59317ZM24.322 8.59317C23.6695 8.59317 23.1109 8.36083 22.6462 7.89614C22.1815 7.43145 21.9492 6.87283 21.9492 6.22029C21.9492 5.54797 22.1815 4.98441 22.6462 4.52961C23.1109 4.07481 23.6695 3.84741 24.322 3.84741C24.9944 3.84741 25.5579 4.07481 26.0127 4.52961C26.4675 4.98441 26.6949 5.54797 26.6949 6.22029C26.6949 6.87283 26.4675 7.43145 26.0127 7.89614C25.5579 8.36083 24.9944 8.59317 24.322 8.59317ZM14.8305 7.40673C13.8418 7.40673 13.0014 7.06069 12.3093 6.36859C11.6172 5.6765 11.2712 4.83611 11.2712 3.84741C11.2712 2.83893 11.6172 1.99359 12.3093 1.31139C13.0014 0.629188 13.8418 0.288086 14.8305 0.288086C15.839 0.288086 16.6843 0.629188 17.3665 1.31139C18.0487 1.99359 18.3898 2.83893 18.3898 3.84741C18.3898 4.83611 18.0487 5.6765 17.3665 6.36859C16.6843 7.06069 15.839 7.40673 14.8305 7.40673ZM14.8305 5.03385C15.1667 5.03385 15.4485 4.92015 15.6759 4.69275C15.9033 4.46535 16.017 4.18357 16.017 3.84741C16.017 3.51125 15.9033 3.22947 15.6759 3.00207C15.4485 2.77467 15.1667 2.66097 14.8305 2.66097C14.4944 2.66097 14.2126 2.77467 13.9852 3.00207C13.7578 3.22947 13.6441 3.51125 13.6441 3.84741C13.6441 4.18357 13.7578 4.46535 13.9852 4.69275C14.2126 4.92015 14.4944 5.03385 14.8305 5.03385Z" fill="white"/>
</svg>
