<svg width="24" height="25" viewBox="0 0 24 25" fill="none" xmlns="http://www.w3.org/2000/svg">
<mask id="mask0_0_42" style="mask-type:alpha" maskUnits="userSpaceOnUse" x="0" y="0" width="24" height="25">
<rect x="0.0678711" y="0.54248" width="23.7288" height="23.7288" fill="#D9D9D9"/>
</mask>
<g mask="url(#mask0_0_42)">
<path d="M8.61995 12.1597V10.8744H15.2442V12.1597H8.61995ZM8.61995 8.60035V7.31504H15.2442V8.60035H8.61995ZM6.59311 15.0269H13.4151C13.8052 15.0269 14.1657 15.1091 14.4968 15.2736C14.8278 15.4379 15.1093 15.67 15.3411 15.9699L17.2711 18.4913V4.99925C17.2711 4.91043 17.2426 4.83752 17.1856 4.7805C17.1285 4.72349 17.0556 4.69498 16.9668 4.69498H6.89738C6.80857 4.69498 6.73565 4.72349 6.67863 4.7805C6.62162 4.83752 6.59311 4.91043 6.59311 4.99925V15.0269ZM6.89738 20.1187H16.8927L14.3327 16.7596C14.2178 16.6083 14.0786 16.4959 13.9152 16.4225C13.7517 16.349 13.585 16.3122 13.4151 16.3122H6.59311V19.8144C6.59311 19.9033 6.62162 19.9762 6.67863 20.0332C6.73565 20.0902 6.80857 20.1187 6.89738 20.1187ZM16.9658 21.404H6.89046C6.44505 21.404 6.06992 21.2504 5.76507 20.943C5.46022 20.6357 5.3078 20.2595 5.3078 19.8144V4.99925C5.3078 4.55417 5.46154 4.17797 5.76903 3.87065C6.07652 3.56333 6.45296 3.40967 6.89837 3.40967H16.9737C17.4191 3.40967 17.7943 3.56333 18.0991 3.87065C18.404 4.17797 18.5564 4.55417 18.5564 4.99925V19.8144C18.5564 20.2595 18.4026 20.6357 18.0952 20.943C17.7877 21.2504 17.4112 21.404 16.9658 21.404Z" fill="white"/>
</g>
</svg>
