<svg width="75" height="75" viewBox="0 0 75 75" fill="none" xmlns="http://www.w3.org/2000/svg">
<g filter="url(#filter0_d_0_449)">
<path d="M51.1836 46.0077C49.9472 46.7227 41.7357 50.3732 34.8714 43.6005C34.4067 43.139 39.2043 44.5014 40.1767 44.0756C40.1767 44.0756 32.605 41.1466 30.7903 37.8566C27.3809 31.6758 26.6825 23.8925 22.9817 21.5896H10.8194V43.7089H26.0369V58.9274L48.1548 58.926V47.9185C49.4436 47.3764 49.6714 47.0624 51.1256 46.1129C51.1461 46.0771 51.1634 46.0441 51.1836 46.0077Z" fill="url(#paint0_radial_0_449)"/>
<path d="M48.1543 21.5898V6.37158L26.0364 6.37228V15.519C23.8946 15.6048 20.4772 17.1885 19.5239 17.79C25.978 15.7948 34.1325 16.8572 38.1219 18.2793C38.1219 18.2793 34.2503 17.9365 32.2554 19.2271C32.2554 19.2271 43.5363 17.899 51.7578 27.9936C52.0388 28.3388 49.3299 26.7086 46.8658 27.4122C46.8658 27.4122 58.2481 30.1117 53.7562 43.7087H63.3735V21.5894H48.1543V21.5898Z" fill="url(#paint1_radial_0_449)"/>
<path d="M32.0867 26.9509C35.1599 28.1275 38.0546 29.7536 40.7194 31.705C42.9529 33.3418 42.932 33.4009 43.3721 33.7645C46.7433 36.6196 49.8064 39.9037 52.1368 43.727C53.2811 45.6455 54.2351 47.7095 54.7762 49.9242C55.318 52.1233 55.4031 54.5221 54.6971 56.7632C54.0014 59.0095 52.5435 60.9568 50.7313 62.4022C48.8934 63.8442 46.7259 64.7433 44.5341 65.3091C42.3319 65.8738 40.0797 66.1242 37.8369 66.1839C35.6121 66.2437 33.3196 66.0801 31.1121 65.6821C26.6716 64.8916 22.3957 63.1638 18.6428 60.6463C14.8906 58.1294 11.6535 54.8381 9.21094 51.0224C6.76354 47.2111 5.11042 42.8838 4.4061 38.3985C3.70074 33.9149 3.91224 29.2847 5.05519 24.8779C6.19571 20.4714 8.26005 16.3021 11.0829 12.7225C13.9008 9.13911 17.4596 6.13221 21.4868 3.9696C25.5082 1.79865 29.9925 0.471286 34.557 0.107666C35.129 0.0649489 35.6985 0.0329925 36.2705 0.0156277L37.1454 0L37.9716 0.00660295C39.1482 0.0305664 40.2704 0.113566 41.414 0.254569C43.6895 0.534142 45.9386 1.053 48.1057 1.80629C52.4466 3.30557 56.4679 5.71407 59.8395 8.83349C63.2176 11.9425 65.9522 15.7561 67.8005 19.9695C69.6586 24.1767 70.6241 28.7784 70.6303 33.378C70.6303 33.378 68.6216 19.9376 58.4454 10.7415C52.1937 5.0931 43.1824 2.13865 34.756 2.7624C26.3274 3.30175 18.2219 7.55821 12.934 14.194C10.2737 17.4912 8.30832 21.3483 7.19836 25.445C6.08528 29.5396 5.83661 33.8767 6.45063 38.0869C7.06396 42.2979 8.56844 46.379 10.8335 49.9944C13.0913 53.6128 16.1135 56.7579 19.6375 59.1789C23.1618 61.6006 27.1943 63.2847 31.4046 64.0831C33.5224 64.4849 35.6364 64.6641 37.8056 64.6315C39.9557 64.5996 42.1062 64.3828 44.1719 63.8747C46.2327 63.3705 48.2231 62.5564 49.8672 61.2936C51.5016 60.0253 52.8331 58.3295 53.477 56.3693C54.1389 54.412 54.1216 52.2493 53.6562 50.1847C53.1936 48.111 52.3257 46.1147 51.2567 44.2407C49.2636 40.741 46.6186 37.6042 43.6499 34.8307C43.4273 34.6244 43.2022 34.4185 42.9782 34.2156C39.7275 31.3053 36.1254 28.7079 32.0867 26.9509Z" fill="url(#paint2_radial_0_449)"/>
</g>
<defs>
<filter id="filter0_d_0_449" x="-6.10352e-05" y="0" width="74.6304" height="74.1958" filterUnits="userSpaceOnUse" color-interpolation-filters="sRGB">
<feFlood flood-opacity="0" result="BackgroundImageFix"/>
<feColorMatrix in="SourceAlpha" type="matrix" values="0 0 0 0 0 0 0 0 0 0 0 0 0 0 0 0 0 0 127 0" result="hardAlpha"/>
<feOffset dy="4"/>
<feGaussianBlur stdDeviation="2"/>
<feComposite in2="hardAlpha" operator="out"/>
<feColorMatrix type="matrix" values="0 0 0 0 1 0 0 0 0 1 0 0 0 0 1 0 0 0 0.15 0"/>
<feBlend mode="normal" in2="BackgroundImageFix" result="effect1_dropShadow_0_449"/>
<feBlend mode="normal" in="SourceGraphic" in2="effect1_dropShadow_0_449" result="shape"/>
</filter>
<radialGradient id="paint0_radial_0_449" cx="0" cy="0" r="1" gradientUnits="userSpaceOnUse" gradientTransform="translate(38.6711 32.4973) scale(29.5234 29.5234)">
<stop offset="0.0275" stop-color="white"/>
<stop offset="0.4364" stop-color="#009EE2"/>
<stop offset="1" stop-color="#003B79"/>
</radialGradient>
<radialGradient id="paint1_radial_0_449" cx="0" cy="0" r="1" gradientUnits="userSpaceOnUse" gradientTransform="translate(38.6418 32.4974) scale(29.5527 29.5527)">
<stop offset="0.0275" stop-color="white"/>
<stop offset="0.2424" stop-color="#B6CC00"/>
<stop offset="0.6242" stop-color="#72AE2D"/>
<stop offset="1" stop-color="#006432"/>
</radialGradient>
<radialGradient id="paint2_radial_0_449" cx="0" cy="0" r="1" gradientUnits="userSpaceOnUse" gradientTransform="translate(36.9999 27) rotate(112.306) scale(42.1545 42.1545)">
<stop offset="0.005" stop-color="white"/>
<stop offset="0.175" stop-color="#009EE2"/>
<stop offset="0.66" stop-color="#009EE2"/>
<stop offset="1" stop-color="white"/>
</radialGradient>
</defs>
</svg>
