<svg width="28" height="28" viewBox="0 0 28 28" fill="none" xmlns="http://www.w3.org/2000/svg">
<path d="M9.99998 14L15.3333 19.3333L15.3333 8.66663L9.99998 14ZM0.666645 14C0.666645 12.1555 1.01665 10.4222 1.71665 8.79996C2.41665 7.17774 3.36664 5.76663 4.56664 4.56663C5.76665 3.36663 7.17776 2.41663 8.79998 1.71663C10.4222 1.01663 12.1555 0.666626 14 0.666626C15.8444 0.666626 17.5778 1.01663 19.2 1.71663C20.8222 2.41663 22.2333 3.36663 23.4333 4.56663C24.6333 5.76663 25.5833 7.17774 26.2833 8.79996C26.9833 10.4222 27.3333 12.1555 27.3333 14C27.3333 15.8444 26.9833 17.5777 26.2833 19.2C25.5833 20.8222 24.6333 22.2333 23.4333 23.4333C22.2333 24.6333 20.8222 25.5833 19.2 26.2833C17.5778 26.9833 15.8444 27.3333 14 27.3333C12.1555 27.3333 10.4222 26.9833 8.79998 26.2833C7.17776 25.5833 5.76665 24.6333 4.56664 23.4333C3.36664 22.2333 2.41665 20.8222 1.71665 19.2C1.01665 17.5777 0.666645 15.8444 0.666645 14Z" fill="#004EC4"/>
</svg>
