<svg width="28" height="28" viewBox="0 0 28 28" fill="none" xmlns="http://www.w3.org/2000/svg">
<path d="M18 14L12.6667 8.66671L12.6667 19.3334L18 14ZM27.3334 14C27.3334 15.8445 26.9834 17.5778 26.2834 19.2C25.5834 20.8223 24.6334 22.2334 23.4334 23.4334C22.2334 24.6334 20.8222 25.5834 19.2 26.2834C17.5778 26.9834 15.8445 27.3334 14 27.3334C12.1556 27.3334 10.4222 26.9834 8.80002 26.2834C7.1778 25.5834 5.76669 24.6334 4.56669 23.4334C3.36669 22.2334 2.41669 20.8223 1.71669 19.2C1.01669 17.5778 0.666687 15.8445 0.666686 14C0.666686 12.1556 1.01669 10.4223 1.71669 8.80004C2.41669 7.17782 3.36669 5.76671 4.56669 4.56671C5.76669 3.3667 7.1778 2.41671 8.80002 1.71671C10.4222 1.01671 12.1556 0.666706 14 0.666706C15.8445 0.666705 17.5778 1.01671 19.2 1.71671C20.8222 2.41671 22.2334 3.3667 23.4334 4.5667C24.6334 5.76671 25.5834 7.17782 26.2834 8.80004C26.9834 10.4223 27.3334 12.1556 27.3334 14Z" fill="#004EC4"/>
</svg>
