<svg width="22" height="16" viewBox="0 0 22 16" fill="none" xmlns="http://www.w3.org/2000/svg">
<path d="M5.19076 9.8136C4.778 11.981 4.15885 13.5292 3.6429 14.4581C3.43651 14.8193 3.84928 15.2322 4.21045 15.0258C8.54447 12.4971 10.4535 8.7815 10.7115 5.83999C10.9179 3.25971 9.16362 0.627838 6.53225 0.16339C3.90087 -0.301059 1.37269 1.45353 0.90833 4.0854C0.392375 6.8721 2.35301 9.55558 5.19076 9.8136Z" fill="#004EC4" fill-opacity="0.5"/>
<path d="M16.0773 9.81373C15.6645 11.9812 15.0454 13.5293 14.5294 14.4582C14.323 14.8195 14.7358 15.2323 15.097 15.0259C19.431 12.4972 21.34 8.78162 21.598 5.84011C21.8044 3.25984 20.0501 0.62796 17.4187 0.163512C14.7874 -0.300937 12.2592 1.45365 11.7432 4.08553C11.2273 6.87222 13.1879 9.5557 16.0773 9.81373Z" fill="#004EC4" fill-opacity="0.5"/>
</svg>
