<svg width="36" height="25" viewBox="0 0 36 25" fill="none" xmlns="http://www.w3.org/2000/svg">
<g opacity="0.42">
<path d="M27.9751 8.86032C28.6539 5.2756 29.6721 2.71509 30.5207 1.17879C30.8601 0.581333 30.1812 -0.101469 29.5873 0.239933C22.4596 4.4221 19.32 10.5673 18.8958 15.4323C18.5564 19.6998 21.4414 24.0527 25.7689 24.8208C30.0964 25.589 34.2542 22.6871 35.0179 18.3342C35.8664 13.7253 32.642 9.28707 27.9751 8.86032Z" fill="#6493DA"/>
<path d="M10.0716 8.86007C10.7505 5.27536 11.7687 2.71485 12.6172 1.17854C12.9566 0.581089 12.2778 -0.101714 11.6838 0.239688C4.55617 4.42185 1.4166 10.5671 0.992335 15.4321C0.652922 19.6996 3.53793 24.0524 7.86544 24.8206C12.193 25.5887 16.3508 22.6868 17.1993 18.334C18.0478 13.725 14.8234 9.28683 10.0716 8.86007Z" fill="#6493DA"/>
</g>
</svg>
