<svg width="98" height="98" viewBox="0 0 98 98" fill="none" xmlns="http://www.w3.org/2000/svg">
<mask id="mask0_0_384" style="mask-type:alpha" maskUnits="userSpaceOnUse" x="0" y="0" width="98" height="98">
<rect width="98" height="98" fill="#D9D9D9"/>
</mask>
<g mask="url(#mask0_0_384)">
<path d="M65.8439 12.25C72.6495 12.25 78.3492 14.7681 82.9429 19.8042C87.5367 24.8403 89.8335 30.8292 89.8335 37.7708C89.8335 38.9958 89.7655 40.2038 89.6294 41.3948C89.4932 42.5858 89.2551 43.7597 88.9148 44.9167H63.3939L56.4523 34.5042C56.112 33.9597 55.6356 33.5174 55.0231 33.1771C54.4106 32.8368 53.7641 32.6667 53.0835 32.6667C52.1988 32.6667 51.3992 32.9389 50.6846 33.4833C49.97 34.0278 49.4766 34.7083 49.2044 35.525L43.6919 52.0625L40.1189 46.7542C39.7787 46.2097 39.3023 45.7674 38.6898 45.4271C38.0773 45.0868 37.4307 44.9167 36.7502 44.9167H9.0856C8.74533 43.7597 8.50713 42.5858 8.37102 41.3948C8.23491 40.2038 8.16685 39.0299 8.16685 37.8729C8.16685 30.8632 10.4467 24.8403 15.0064 19.8042C19.5662 14.7681 25.2488 12.25 32.0544 12.25C35.321 12.25 38.4005 12.8965 41.2929 14.1896C44.1853 15.4826 46.7544 17.2861 49.0002 19.6C51.178 17.2861 53.713 15.4826 56.6054 14.1896C59.4978 12.8965 62.5773 12.25 65.8439 12.25ZM49.0002 85.75C47.7752 85.75 46.6012 85.5288 45.4783 85.0865C44.3554 84.6441 43.3516 83.9806 42.4669 83.0958L15.1085 55.6354C14.7002 55.2271 14.3259 54.8188 13.9856 54.4104C13.6453 54.0021 13.305 53.5597 12.9648 53.0833H34.5044L41.446 63.4958C41.7863 64.0403 42.2627 64.4826 42.8752 64.8229C43.4877 65.1632 44.1342 65.3333 44.8148 65.3333C45.6995 65.3333 46.5162 65.0611 47.2648 64.5167C48.0134 63.9722 48.5238 63.2917 48.796 62.475L54.3085 45.9375L57.7794 51.2458C58.1877 51.7903 58.6981 52.2326 59.3106 52.5729C59.9231 52.9132 60.5696 53.0833 61.2502 53.0833H84.9335L82.8919 55.5333L55.4314 83.0958C54.5467 83.9806 53.5599 84.6441 52.471 85.0865C51.3821 85.5288 50.2252 85.75 49.0002 85.75Z" fill="white"/>
</g>
</svg>
