<svg width="88" height="88" viewBox="0 0 88 88" fill="none" xmlns="http://www.w3.org/2000/svg">
<mask id="mask0_0_387" style="mask-type:alpha" maskUnits="userSpaceOnUse" x="0" y="0" width="88" height="88">
<rect width="88" height="88" fill="#D9D9D9"/>
</mask>
<g mask="url(#mask0_0_387)">
<path d="M56.8333 40.3334C58.3611 40.3334 59.6597 39.7987 60.7292 38.7292C61.7986 37.6598 62.3333 36.3612 62.3333 34.8334C62.3333 33.3056 61.7986 32.007 60.7292 30.9375C59.6597 29.8681 58.3611 29.3334 56.8333 29.3334C55.3056 29.3334 54.007 29.8681 52.9375 30.9375C51.8681 32.007 51.3333 33.3056 51.3333 34.8334C51.3333 36.3612 51.8681 37.6598 52.9375 38.7292C54.007 39.7987 55.3056 40.3334 56.8333 40.3334ZM31.1667 40.3334C32.6945 40.3334 33.9931 39.7987 35.0625 38.7292C36.132 37.6598 36.6667 36.3612 36.6667 34.8334C36.6667 33.3056 36.132 32.007 35.0625 30.9375C33.9931 29.8681 32.6945 29.3334 31.1667 29.3334C29.6389 29.3334 28.3403 29.8681 27.2708 30.9375C26.2014 32.007 25.6667 33.3056 25.6667 34.8334C25.6667 36.3612 26.2014 37.6598 27.2708 38.7292C28.3403 39.7987 29.6389 40.3334 31.1667 40.3334ZM44 64.1667C48.1556 64.1667 51.9292 62.9903 55.3208 60.6375C58.7125 58.2848 61.1722 55.1834 62.7 51.3334H25.3C26.8278 55.1834 29.2875 58.2848 32.6792 60.6375C36.0708 62.9903 39.8445 64.1667 44 64.1667ZM44 80.6667C38.9278 80.6667 34.1611 79.7042 29.7 77.7792C25.2389 75.8542 21.3583 73.2417 18.0583 69.9417C14.7583 66.6417 12.1458 62.7612 10.2208 58.3C8.29584 53.8389 7.33334 49.0723 7.33334 44C7.33334 38.9278 8.29584 34.1612 10.2208 29.7C12.1458 25.2389 14.7583 21.3584 18.0583 18.0584C21.3583 14.7584 25.2389 12.1459 29.7 10.2209C34.1611 8.29587 38.9278 7.33337 44 7.33337C49.0722 7.33337 53.8389 8.29587 58.3 10.2209C62.7611 12.1459 66.6417 14.7584 69.9417 18.0584C73.2417 21.3584 75.8542 25.2389 77.7792 29.7C79.7042 34.1612 80.6667 38.9278 80.6667 44C80.6667 49.0723 79.7042 53.8389 77.7792 58.3C75.8542 62.7612 73.2417 66.6417 69.9417 69.9417C66.6417 73.2417 62.7611 75.8542 58.3 77.7792C53.8389 79.7042 49.0722 80.6667 44 80.6667ZM44 73.3334C52.1889 73.3334 59.125 70.4917 64.8083 64.8084C70.4917 59.125 73.3333 52.1889 73.3333 44C73.3333 35.8112 70.4917 28.875 64.8083 23.1917C59.125 17.5084 52.1889 14.6667 44 14.6667C35.8111 14.6667 28.875 17.5084 23.1917 23.1917C17.5083 28.875 14.6667 35.8112 14.6667 44C14.6667 52.1889 17.5083 59.125 23.1917 64.8084C28.875 70.4917 35.8111 73.3334 44 73.3334Z" fill="white"/>
</g>
</svg>
