<svg width="48" height="66" viewBox="0 0 48 66" fill="none" xmlns="http://www.w3.org/2000/svg">
<path d="M0.079895 65.7355V58.9035H17.1598V52.0716C12.4343 52.0716 8.40633 50.4063 5.07576 47.0757C1.74518 43.7452 0.079895 39.7172 0.079895 34.9917C0.079895 31.5188 1.03352 28.359 2.94077 25.5124C4.84803 22.6657 7.42424 20.5877 10.6694 19.2782C11.1249 17.3425 12.1354 15.7769 13.7011 14.5813C15.2668 13.3857 17.0459 12.7879 19.0386 12.7879L17.1598 7.49312L20.4049 6.29753L19.2094 3.22315L25.6997 0.83197L26.7245 4.07715L29.9697 2.88156L39.3636 28.5014L36.1184 29.697L37.314 32.9421L30.8237 35.3333L29.7989 32.0881L26.5537 33.2837L24.5041 27.6474C23.6501 28.4444 22.668 29.0422 21.5578 29.4408C20.4476 29.8393 19.3232 29.9816 18.1846 29.8678C16.932 29.7539 15.7649 29.3696 14.6832 28.7149C13.6015 28.0601 12.6621 27.2488 11.865 26.281C10.3278 27.1919 9.118 28.416 8.23554 29.9532C7.35308 31.4903 6.91185 33.1699 6.91185 34.9917C6.91185 37.8384 7.90817 40.258 9.90082 42.2507C11.8935 44.2433 14.3131 45.2396 17.1598 45.2396H44.4876V52.0716H27.4077V58.9035H47.9035V65.7355H0.079895ZM29.6281 26.6226L32.7025 25.427L26.8953 9.37191L23.6501 10.5675L29.6281 26.6226ZM18.8678 24.7438C19.8356 24.7438 20.6469 24.4164 21.3016 23.7617C21.9564 23.107 22.2837 22.2957 22.2837 21.3278C22.2837 20.36 21.9564 19.5487 21.3016 18.8939C20.6469 18.2392 19.8356 17.9118 18.8678 17.9118C17.8999 17.9118 17.0886 18.2392 16.4339 18.8939C15.7791 19.5487 15.4518 20.36 15.4518 21.3278C15.4518 22.2957 15.7791 23.107 16.4339 23.7617C17.0886 24.4164 17.8999 24.7438 18.8678 24.7438Z" fill="#004EC4"/>
</svg>
