<svg width="56" height="70" viewBox="0 0 56 70" fill="none" xmlns="http://www.w3.org/2000/svg">
<path d="M22.8677 46.9476H33.1156V38.4077H41.6556V28.1597H33.1156V19.6198H22.8677V28.1597H14.3278V38.4077H22.8677V46.9476ZM27.9917 69.1514C20.078 67.1588 13.545 62.6184 8.39252 55.5302C3.24009 48.4421 0.663879 40.5711 0.663879 31.9173V11.0799L27.9917 0.83194L55.3195 11.0799V31.9173C55.3195 40.5711 52.7433 48.4421 47.5908 55.5302C42.4384 62.6184 35.9054 67.1588 27.9917 69.1514ZM27.9917 61.9779C33.9127 60.0991 38.8089 56.3415 42.6804 50.7052C46.5518 45.0688 48.4875 38.8062 48.4875 31.9173V15.7768L27.9917 8.09089L7.49583 15.7768V31.9173C7.49583 38.8062 9.43155 45.0688 13.303 50.7052C17.1744 56.3415 22.0707 60.0991 27.9917 61.9779Z" fill="#004EC4"/>
</svg>
