<svg width="67" height="62" viewBox="0 0 67 62" fill="none" xmlns="http://www.w3.org/2000/svg">
<path d="M1.32233 30.1735C0.696066 29.4903 0.382935 28.679 0.382935 27.7396C0.382935 26.8002 0.696066 25.989 1.32233 25.3058L10.8871 15.741L7.21489 12.0689L6.19009 13.0936C5.5069 13.7768 4.6956 14.1184 3.75621 14.1184C2.81682 14.1184 2.00552 13.7768 1.32233 13.0936C0.696066 12.4674 0.382935 11.6703 0.382935 10.7025C0.382935 9.73461 0.696066 8.93754 1.32233 8.31128L8.15428 1.47933C8.83747 0.796138 9.64877 0.45454 10.5882 0.45454C11.5276 0.45454 12.3388 0.796138 13.022 1.47933C13.6483 2.10559 13.9614 2.90266 13.9614 3.87051C13.9614 4.83837 13.6483 5.63544 13.022 6.2617L11.9973 7.28649L15.6694 10.9587L25.2342 1.39393C25.9173 0.710738 26.7286 0.369141 27.668 0.369141C28.6074 0.369141 29.4187 0.710738 30.1019 1.39393C30.7851 2.07713 31.1267 2.88842 31.1267 3.82782C31.1267 4.76721 30.7851 5.5785 30.1019 6.2617L27.7961 8.48208L52.989 33.6749C54.2984 34.9844 54.9531 36.5927 54.9531 38.5C54.9531 40.4072 54.2984 42.0156 52.989 43.325L50.5978 45.8016L66.7383 61.8567H57.0027L45.73 50.584L43.3388 53.0606C42.0294 54.37 40.421 55.0247 38.5138 55.0247C36.6065 55.0247 34.9981 54.37 33.6887 53.0606L8.49588 27.8677L6.19009 30.1735C5.5069 30.7998 4.6956 31.1129 3.75621 31.1129C2.81682 31.1129 2.00552 30.7998 1.32233 30.1735ZM13.2782 23.0854L38.4711 48.2782L48.1212 38.5427L42.9972 33.3333L38.2149 38.1157C37.5317 38.7419 36.7204 39.0693 35.781 39.0978C34.8416 39.1262 34.0588 38.8273 33.4325 38.2011C32.7493 37.5179 32.4077 36.7066 32.4077 35.7672C32.4077 34.8278 32.7493 34.0165 33.4325 33.3333L38.2149 28.5509L33.0909 23.427L28.3085 28.2093C27.6253 28.8356 26.814 29.1487 25.8746 29.1487C24.9353 29.1487 24.124 28.8356 23.4408 28.2093C22.8145 27.5261 22.5014 26.7148 22.5014 25.7755C22.5014 24.8361 22.8145 24.0248 23.4408 23.3416L28.2231 18.5592L23.0138 13.3498L13.2782 23.0854Z" fill="#004EC4"/>
</svg>
