<svg width="26" height="30" viewBox="0 0 26 30" fill="none" xmlns="http://www.w3.org/2000/svg">
<path fill-rule="evenodd" clip-rule="evenodd" d="M3.73007 2.98054e-06C3.09637 -0.000624647 2.47294 0.160377 1.91863 0.467817C1.35017 0.757865 0.871283 1.1973 0.533291 1.73903C0.195299 2.28075 0.0109485 2.90434 0 3.54295V26.4551C0.0109485 27.0937 0.195299 27.7173 0.533291 28.259C0.871283 28.8008 1.35017 29.2402 1.91863 29.5302C2.48299 29.8441 3.11906 30.0059 3.76461 29.9998C4.41017 29.9938 5.04311 29.8202 5.60154 29.4959L24.1019 18.0409C24.6728 17.7529 25.1526 17.3118 25.4877 16.7668C25.8229 16.2218 26.0002 15.5944 26 14.9544C25.9998 14.3144 25.822 13.6871 25.4865 13.1423C25.1509 12.5976 24.6708 12.1568 24.0997 11.8692L5.5994 0.500006C5.03107 0.171644 4.38627 -0.000826868 3.73007 2.98054e-06Z" fill="#3AAC05"/>
</svg>
