<svg width="31" height="32" viewBox="0 0 31 32" fill="none" xmlns="http://www.w3.org/2000/svg">
<path d="M20.8292 14.4923C20.1069 14.4923 19.493 14.2395 18.9874 13.7339C18.4818 13.2283 18.229 12.6144 18.229 11.8921C18.229 11.401 18.3662 10.9026 18.6407 10.397C18.9152 9.8914 19.2113 9.42915 19.5291 9.01023C19.8469 8.59131 20.143 8.24462 20.4175 7.97015L20.8292 7.55846L21.2409 7.97015C21.5153 8.24462 21.8115 8.59131 22.1293 9.01023C22.4471 9.42915 22.7432 9.8914 23.0177 10.397C23.2921 10.9026 23.4294 11.401 23.4294 11.8921C23.4294 12.6144 23.1766 13.2283 22.671 13.7339C22.1654 14.2395 21.5515 14.4923 20.8292 14.4923ZM27.763 9.29191C27.0407 9.29191 26.4268 9.03912 25.9212 8.53353C25.4156 8.02794 25.1628 7.414 25.1628 6.69173C25.1628 6.20058 25.3001 5.70222 25.5745 5.19662C25.849 4.69103 26.1451 4.22878 26.4629 3.80986C26.7807 3.39094 27.0768 3.04425 27.3513 2.76979L27.763 2.35809L28.1747 2.76979C28.4492 3.04425 28.7453 3.39094 29.0631 3.80986C29.3809 4.22878 29.677 4.69103 29.9515 5.19662C30.226 5.70222 30.3632 6.20058 30.3632 6.69173C30.3632 7.414 30.1104 8.02794 29.6048 8.53353C29.0992 9.03912 28.4853 9.29191 27.763 9.29191ZM27.763 19.6926C27.0407 19.6926 26.4268 19.4399 25.9212 18.9343C25.4156 18.4287 25.1628 17.8147 25.1628 17.0925C25.1628 16.6013 25.3001 16.103 25.5745 15.5974C25.849 15.0918 26.1451 14.6295 26.4629 14.2106C26.7807 13.7917 27.0768 13.445 27.3513 13.1705L27.763 12.7588L28.1747 13.1705C28.4492 13.445 28.7453 13.7917 29.0631 14.2106C29.3809 14.6295 29.677 15.0918 29.9515 15.5974C30.226 16.103 30.3632 16.6013 30.3632 17.0925C30.3632 17.8147 30.1104 18.4287 29.6048 18.9343C29.0992 19.4399 28.4853 19.6926 27.763 19.6926ZM9.56172 31.8268C7.16377 31.8268 5.11974 30.9818 3.42962 29.2917C1.7395 27.6015 0.89444 25.5575 0.89444 23.1596C0.89444 21.7728 1.19779 20.4799 1.8045 19.281C2.41121 18.082 3.2635 17.0636 4.36135 16.2257V5.825C4.36135 4.38046 4.86694 3.15259 5.87813 2.14141C6.88931 1.13023 8.11717 0.624634 9.56172 0.624634C11.0063 0.624634 12.2341 1.13023 13.2453 2.14141C14.2565 3.15259 14.7621 4.38046 14.7621 5.825V16.2257C15.8599 17.0636 16.7122 18.082 17.3189 19.281C17.9256 20.4799 18.229 21.7728 18.229 23.1596C18.229 25.5575 17.3839 27.6015 15.6938 29.2917C14.0037 30.9818 11.9597 31.8268 9.56172 31.8268ZM4.36135 23.1596H14.7621C14.7621 22.3217 14.5815 21.5417 14.2204 20.8194C13.8592 20.0971 13.3464 19.4904 12.6819 18.9993L11.2952 17.9592V5.825C11.2952 5.33386 11.1291 4.92216 10.7968 4.58991C10.4646 4.25767 10.0529 4.09155 9.56172 4.09155C9.07057 4.09155 8.65888 4.25767 8.32663 4.58991C7.99439 4.92216 7.82826 5.33386 7.82826 5.825V17.9592L6.4415 18.9993C5.77701 19.4904 5.26419 20.0971 4.90306 20.8194C4.54192 21.5417 4.36135 22.3217 4.36135 23.1596Z" fill="white"/>
</svg>
