<svg width="39" height="39" viewBox="0 0 39 39" fill="none" xmlns="http://www.w3.org/2000/svg">
<path d="M19.8016 38.2937C14.4279 38.2937 9.90645 37.3042 6.2373 35.3252C2.56816 33.3462 0.733582 30.9169 0.733582 28.0373C0.733582 25.8514 1.74953 23.9423 3.78143 22.31C5.81362 20.6776 8.55349 19.5726 12.001 18.9947V21.9126C9.44911 22.3075 7.41475 23.0635 5.89798 24.1804C4.38121 25.2976 3.62282 26.5832 3.62282 28.0373C3.62282 29.9828 5.24071 31.6971 8.4765 33.18C11.7123 34.663 15.4873 35.4045 19.8016 35.4045C24.1159 35.4045 27.8909 34.663 31.1267 33.18C34.3625 31.6971 35.9804 29.9828 35.9804 28.0373C35.9804 26.5639 35.2172 25.2735 33.6909 24.1661C32.1646 23.0587 30.135 22.3075 27.6021 21.9126V18.9947C31.0306 19.5532 33.7656 20.6534 35.807 22.2952C37.8488 23.9374 38.8696 25.8514 38.8696 28.0373C38.8696 30.9362 37.035 33.3703 33.3659 35.3395C29.6967 37.309 25.1753 38.2937 19.8016 38.2937ZM14.8903 31.2442V11.7719H5.93395V8.88263H33.6692V11.7719H24.7129V31.2442H21.8241V22.4326H17.7791V31.2442H14.8903ZM19.8077 6.5715C18.9274 6.5715 18.1717 6.25803 17.5407 5.6311C16.91 5.00417 16.5947 4.25069 16.5947 3.37068C16.5947 2.49037 16.9082 1.73473 17.5351 1.10375C18.162 0.47306 18.9155 0.157715 19.7955 0.157715C20.6758 0.157715 21.4315 0.471182 22.0625 1.09812C22.6931 1.72505 23.0085 2.47852 23.0085 3.35854C23.0085 4.23885 22.695 4.99449 22.0681 5.62547C21.4412 6.25616 20.6877 6.5715 19.8077 6.5715Z" fill="white"/>
</svg>
