<svg width="29" height="36" viewBox="0 0 29 36" fill="none" xmlns="http://www.w3.org/2000/svg">
<path d="M7.61795 17.6218V14.1199H21.6257V17.6218H7.61795ZM7.61795 10.618V7.11604H21.6257V10.618H7.61795ZM4.11602 21.1238H17.2483C18.0946 21.1238 18.8825 21.3062 19.6121 21.6709C20.3416 22.0357 20.9545 22.5537 21.4506 23.2249L25.1276 28.0401V3.61411H4.11602V21.1238ZM4.11602 31.6296H23.4642L18.6928 25.3699C18.5177 25.1364 18.3061 24.954 18.0581 24.8227C17.81 24.6914 17.5401 24.6257 17.2483 24.6257H4.11602V31.6296ZM25.1276 35.1315H4.11602C3.15299 35.1315 2.32858 34.7886 1.64278 34.1028C0.956987 33.417 0.61409 32.5926 0.61409 31.6296V3.61411C0.61409 2.65108 0.956987 1.82667 1.64278 1.14087C2.32858 0.45508 3.15299 0.112183 4.11602 0.112183H25.1276C26.0906 0.112183 26.9151 0.45508 27.6008 1.14087C28.2866 1.82667 28.6295 2.65108 28.6295 3.61411V31.6296C28.6295 32.5926 28.2866 33.417 27.6008 34.1028C26.9151 34.7886 26.0906 35.1315 25.1276 35.1315Z" fill="white"/>
</svg>
