<svg width="25" height="32" viewBox="0 0 25 32" fill="none" xmlns="http://www.w3.org/2000/svg">
<path d="M10.2916 25.2671H15.4394V20.9772H19.7293V15.8294H15.4394V11.5395H10.2916V15.8294H6.00169V20.9772H10.2916V25.2671ZM4.28574 31.2729C3.34197 31.2729 2.53405 30.9369 1.86197 30.2648C1.18989 29.5927 0.853851 28.7848 0.853851 27.841V8.9656C0.853851 8.02182 1.18989 7.2139 1.86197 6.54182C2.53405 5.86974 3.34197 5.5337 4.28574 5.5337H21.4452C22.389 5.5337 23.1969 5.86974 23.869 6.54182C24.5411 7.2139 24.8771 8.02182 24.8771 8.9656V27.841C24.8771 28.7848 24.5411 29.5927 23.869 30.2648C23.1969 30.9369 22.389 31.2729 21.4452 31.2729H4.28574ZM4.28574 27.841H21.4452V8.9656H4.28574V27.841ZM2.5698 3.81776V0.385864H23.1611V3.81776H2.5698Z" fill="white"/>
</svg>
